<?xml version="1.0" encoding="iso-8859-1"?>
<!-- Uploaded to: SVG Repo, www.svgrepo.com, Generator: SVG Repo Mixer Tools -->
<!DOCTYPE svg PUBLIC "-//W3C//DTD SVG 1.1//EN" "http://www.w3.org/Graphics/SVG/1.1/DTD/svg11.dtd">
<svg fill="#000000" height="800px" width="800px" version="1.1" id="Capa_1" xmlns="http://www.w3.org/2000/svg" xmlns:xlink="http://www.w3.org/1999/xlink" 
	 viewBox="0 0 470 470" xml:space="preserve">
<path d="M425.685,180.322c-15.682-7.717-33.194-11.796-50.644-11.796c-19.335,0-38.532,5.004-55.518,14.471
	c-31.605,17.616-52.929,49.156-57.651,84.926L242.5,278.721v-82.448c35.66-3.759,63.542-34.004,63.542-70.644V81.805
	c0-4.142-3.358-7.5-7.5-7.5h-21.716V7.5c0-4.142-3.358-7.5-7.5-7.5s-7.5,3.358-7.5,7.5v66.805h-53.652V7.5
	c0-4.142-3.358-7.5-7.5-7.5s-7.5,3.358-7.5,7.5v66.805h-21.717c-4.142,0-7.5,3.358-7.5,7.5v43.825
	c0,36.64,27.883,66.884,63.543,70.644v82.448l-19.372-10.798c-4.722-35.771-26.047-67.311-57.651-84.926
	c-16.985-9.467-36.183-14.471-55.518-14.471c-17.449,0-34.961,4.079-50.644,11.796c-2.8,1.378-4.454,4.346-4.153,7.452
	c3.62,37.395,25.344,70.623,58.11,88.886c16.985,9.467,36.183,14.471,55.517,14.471c16.123,0,32.296-3.49,47.033-10.106
	l26.678,14.871v30.115h-71.654c-4.142,0-7.5,3.358-7.5,7.5s3.358,7.5,7.5,7.5h3.011l8.613,122.019
	c0.277,3.927,3.544,6.972,7.481,6.972h120.098c3.937,0,7.204-3.044,7.481-6.972l8.613-122.019h3.011c4.142,0,7.5-3.358,7.5-7.5
	s-3.358-7.5-7.5-7.5H242.5v-30.115l26.678-14.871c14.736,6.616,30.909,10.106,47.033,10.106c19.334,0,38.533-5.004,55.517-14.471
	c32.766-18.263,54.49-51.491,58.11-88.886C430.139,184.668,428.485,181.7,425.685,180.322z M153.789,276.13
	c-16.784,0-33.457-4.348-48.214-12.573c-26.922-15.005-45.263-41.647-49.834-71.981c12.359-5.278,25.811-8.05,39.218-8.05
	c16.785,0,33.457,4.348,48.215,12.574c24.016,13.386,41.194,36.035,47.87,62.301L86.94,200.373c-3.617-2.016-8.186-0.719-10.202,2.9
	c-2.017,3.618-0.719,8.186,2.899,10.202l104.104,58.028C174.058,274.548,163.912,276.13,153.789,276.13z M288.06,455H181.94
	l-8.047-113.99h122.212L288.06,455z M178.957,125.63V89.305h112.085v28.825h-89.585c-4.142,0-7.5,3.358-7.5,7.5s3.358,7.5,7.5,7.5
	h89.069c-3.679,27.366-27.168,48.542-55.526,48.542C204.098,181.672,178.957,156.532,178.957,125.63z M364.425,263.557
	c-14.758,8.226-31.429,12.573-48.21,12.573c-10.127,0-20.273-1.583-29.956-4.627l104.104-58.028
	c3.618-2.017,4.917-6.584,2.899-10.202c-2.017-3.618-6.584-4.917-10.202-2.9L278.957,258.4c6.675-26.266,23.854-48.915,47.87-62.301
	c14.758-8.226,31.43-12.574,48.215-12.574c13.408,0,26.859,2.771,39.218,8.05C409.688,221.91,391.347,248.552,364.425,263.557z"/>
</svg>